<svg width="77" height="88" viewBox="0 0 77 88" fill="none" xmlns="http://www.w3.org/2000/svg">
<path fill-rule="evenodd" clip-rule="evenodd" d="M16.7528 7.24847C31.2618 5.55618 45.917 5.55618 60.4259 7.24847C66.1811 7.92056 70.3062 12.8876 70.3062 18.5654V78.4061C70.3055 78.8994 70.1795 79.3844 69.94 79.8151C69.7005 80.2456 69.3556 80.6078 68.9378 80.8669C68.52 81.126 68.0433 81.2738 67.5528 81.296C67.0623 81.3182 66.5742 81.2143 66.1349 80.9939L38.5894 67.1625L11.0438 81.0017C10.6039 81.2223 10.1152 81.3263 9.62409 81.3037C9.13288 81.2811 8.65564 81.1327 8.23767 80.8726C7.8197 80.6125 7.47488 80.2494 7.23592 79.8176C6.99705 79.386 6.87197 78.9 6.87256 78.4061V18.5654C6.87256 12.8876 10.9976 7.92056 16.7528 7.24847Z" stroke="#EF9A63" stroke-width="11.8938" stroke-linecap="round"/>
</svg>
