<svg width="94" height="108" viewBox="0 0 94 108" fill="none" xmlns="http://www.w3.org/2000/svg">
<path fill-rule="evenodd" clip-rule="evenodd" d="M58.4391 7.28746C59.0978 7.6567 59.6148 8.23748 59.9076 8.93714C60.2003 9.63679 60.2519 10.415 60.0542 11.1477L51.0925 44.2363H83.7902C84.4478 44.2364 85.091 44.4298 85.6408 44.7931C86.1906 45.1564 86.623 45.6735 86.8849 46.2809C87.1469 46.8884 87.2269 47.5596 87.1151 48.2123C87.0032 48.8648 86.7045 49.4702 86.2556 49.9542L39.0175 100.926C38.503 101.482 37.8181 101.849 37.0724 101.967C36.3265 102.085 35.563 101.948 34.9038 101.577C34.2446 101.207 33.7279 100.624 33.4362 99.9232C33.1445 99.2214 33.0948 98.4424 33.295 97.7089L42.2567 64.625H9.55902C8.90139 64.6249 8.25823 64.4314 7.70834 64.0682C7.15855 63.7049 6.72611 63.1878 6.46425 62.5804C6.20229 61.9729 6.1224 61.3016 6.23421 60.649C6.34601 59.9965 6.64474 59.391 7.09363 58.9071L54.3317 7.93536C54.8462 7.38099 55.5302 7.01602 56.2745 6.8986C57.019 6.78118 57.781 6.91807 58.4391 7.28746Z" stroke="#D6BAF3" stroke-width="11.8938" stroke-linecap="round"/>
</svg>
