<svg width="69" height="55" viewBox="0 0 69 55" fill="none" xmlns="http://www.w3.org/2000/svg">
<path fill-rule="evenodd" clip-rule="evenodd" d="M12.9315 21.363C12.9295 17.404 14.3254 13.5679 16.8791 10.5148C19.4328 7.4617 22.9846 5.3824 26.9236 4.63459C30.8625 3.88687 34.9425 4.51726 38.4614 6.41752C41.9803 8.31767 44.7184 11.369 46.2046 15.0462C47.8539 14.8593 49.5247 15.051 51.0868 15.6061C52.6488 16.1612 54.0599 17.0649 55.2099 18.2467C56.36 19.4285 57.218 20.8565 57.7171 22.4195C58.2162 23.9824 58.3428 25.6378 58.0871 27.257C60.5815 28.6405 62.5409 30.8012 63.6586 33.4009C64.7764 36.0006 64.9894 38.8927 64.2645 41.6247C63.5396 44.3566 61.9176 46.7744 59.6523 48.4995C57.3869 50.2247 54.606 51.16 51.7447 51.1592H19.4004C15.9666 51.1607 12.6349 50.0066 9.95522 47.8874C7.27553 45.7682 5.40801 42.8104 4.66092 39.5025C3.91382 36.1944 4.33182 32.7339 5.8459 29.6919C7.35999 26.6501 9.8797 24.2086 12.9891 22.7705C12.9504 22.3024 12.9313 21.8328 12.9315 21.363Z" stroke="#EF9A63" stroke-width="7.39437" stroke-linecap="round"/>
</svg>
