<svg width="95" height="88" viewBox="0 0 95 88" fill="none" xmlns="http://www.w3.org/2000/svg">
<path d="M46.4068 81.3822L46.3773 81.3696L46.2844 81.3194C45.7415 81.023 45.2028 80.7189 44.6687 80.4071C38.247 76.6218 32.2457 72.175 26.7643 67.1407C17.057 58.1557 6.77173 44.8223 6.77173 28.4005C6.77173 16.1469 17.1667 6.4295 29.7133 6.4295C33.2012 6.41255 36.648 7.17583 39.7974 8.66256C42.9468 10.1494 45.7179 12.3213 47.9045 15.017C50.0914 12.3208 52.8632 10.1485 56.0135 8.66167C59.1636 7.17484 62.6114 6.41186 66.0999 6.4295C78.6422 6.4295 89.0372 16.1469 89.0372 28.4005C89.0372 44.8265 78.752 58.1598 69.0446 67.1366C63.5634 72.1709 57.562 76.6177 51.1403 80.4029C50.6062 80.7161 50.0675 81.0216 49.5245 81.3194L49.4316 81.3696L49.4021 81.3863L49.3895 81.3905C48.932 81.631 48.4221 81.7566 47.9045 81.7566C47.3868 81.7566 46.8769 81.631 46.4194 81.3905L46.4068 81.3822Z" stroke="#B6DADD" stroke-width="11.8938" stroke-linecap="round"/>
</svg>
