<svg width="58" height="55" viewBox="0 0 58 55" fill="none" xmlns="http://www.w3.org/2000/svg">
<path fill-rule="evenodd" clip-rule="evenodd" d="M11.9556 5.01954C17.5587 4.18477 23.2144 3.76654 28.8775 3.76832C34.6268 3.76832 40.2746 4.19581 45.7992 5.01718C50.4793 5.71846 53.7207 9.87813 53.7207 14.5518V29.0098C53.7207 33.6835 50.4793 37.8431 45.7992 38.5445C41.2092 39.2266 36.5339 39.6372 31.7877 39.7573C31.5517 39.762 31.3265 39.8582 31.1583 40.0263L21.2588 50.0725C21.0107 50.324 20.6947 50.4954 20.3506 50.5647C20.0066 50.6341 19.65 50.5984 19.326 50.4623C19.002 50.326 18.7249 50.0954 18.5299 49.7995C18.3349 49.5036 18.2307 49.1556 18.2304 48.7996V39.301C16.1323 39.1061 14.04 38.853 11.9556 38.5421C7.27567 37.8456 4.03418 33.6811 4.03418 29.0075V14.5542C4.03418 9.8805 7.27567 5.71599 11.9556 5.01954Z" stroke="#B6DADD" stroke-width="7.39437" stroke-linecap="round"/>
</svg>
