<svg width="58" height="51" viewBox="0 0 58 51" fill="none" xmlns="http://www.w3.org/2000/svg">
<path fill-rule="evenodd" clip-rule="evenodd" d="M38.1701 3.83515C38.5716 4.02078 38.8765 4.30097 39.0361 4.63102C39.1957 4.96112 39.2008 5.32201 39.0505 5.65621L32.2438 20.7488L52.8232 21.49C53.2371 21.5049 53.6351 21.609 53.9683 21.7894C54.3015 21.9698 54.5555 22.2186 54.6989 22.5054C54.8423 22.7921 54.869 23.1042 54.7757 23.4033C54.6822 23.7025 54.4729 23.9756 54.1733 24.1891L22.6457 46.6806C22.3023 46.926 21.8583 47.08 21.3848 47.1176C20.9112 47.1557 20.4355 47.0747 20.0337 46.8884C19.6318 46.7021 19.3271 46.4214 19.1683 46.0904C19.0094 45.7599 19.0056 45.3982 19.1574 45.0639L25.964 29.9735L5.3846 29.2322C4.97069 29.2173 4.57272 29.1133 4.23944 28.9329C3.90621 28.7525 3.65227 28.5036 3.50887 28.2169C3.36541 27.9301 3.33879 27.6181 3.43216 27.3189C3.52553 27.0198 3.73489 26.7467 4.03448 26.5331L35.5621 4.04155C35.9054 3.79695 36.3488 3.64374 36.8214 3.60633C37.2941 3.56893 37.7689 3.64948 38.1701 3.83515Z" stroke="#1DBDEF" stroke-width="6" stroke-linecap="round"/>
</svg>
