<svg width="73" height="74" viewBox="0 0 73 74" fill="none" xmlns="http://www.w3.org/2000/svg">
<path fill-rule="evenodd" clip-rule="evenodd" d="M38.5085 6.81646C39.1638 6.84897 39.7893 7.09398 40.2905 7.51435C40.7917 7.93479 41.1412 8.50768 41.2862 9.14645L43.9195 20.7482C44.4864 23.2468 45.6823 25.5558 47.394 27.4572C49.1058 29.3586 51.277 30.7896 53.7026 31.615L64.9652 35.4485C65.5849 35.6599 66.1176 36.0677 66.4825 36.61C66.8482 37.1524 67.0259 37.7999 66.9895 38.4547C66.9531 39.1095 66.7046 39.736 66.2808 40.2394C65.8577 40.7428 65.2827 41.0958 64.643 41.245L53.017 43.9477C50.5132 44.5295 48.1953 45.7386 46.2821 47.4609C44.3689 49.1832 42.9236 51.3617 42.0828 53.7907L38.1776 65.0694C37.9622 65.69 37.5509 66.2249 37.0059 66.5928C36.4609 66.9616 35.8118 67.1431 35.1568 67.1108C34.5018 67.0784 33.8764 66.8339 33.3753 66.4134C32.8741 65.9938 32.5244 65.4213 32.379 64.7829L29.7457 53.1811C29.1787 50.6826 27.9829 48.3736 26.2712 46.4722C24.5594 44.5708 22.3882 43.1399 19.9626 42.3144L8.69995 38.4809C8.0803 38.2694 7.54756 37.8617 7.18237 37.3194C6.81712 36.7769 6.63929 36.1294 6.67569 35.4746C6.71209 34.8198 6.96074 34.1934 7.38412 33.69C7.80744 33.1866 8.38247 32.8336 9.02216 32.6844L20.6482 29.9818C23.152 29.3999 25.4699 28.1907 27.3831 26.4684C29.2963 24.7462 30.7416 22.5677 31.5824 20.1387L35.4876 8.85995C35.7026 8.23897 36.1138 7.70365 36.6588 7.33491C37.2039 6.96623 37.8531 6.78421 38.5085 6.81646Z" stroke="#FFC72C" stroke-width="12" stroke-linecap="round"/>
</svg>
