<svg width="102" height="102" viewBox="0 0 102 102" fill="none" xmlns="http://www.w3.org/2000/svg">
<path fill-rule="evenodd" clip-rule="evenodd" d="M50.6018 6C51.571 6.0002 52.5137 6.31598 53.2874 6.89977C54.0611 7.48346 54.6236 8.30333 54.8898 9.23521L59.725 26.1607C60.766 29.8058 62.7192 33.1253 65.3997 35.8059C68.0804 38.4864 71.4001 40.4394 75.0453 41.4805L91.9714 46.3154C92.9027 46.5823 93.7219 47.1449 94.3046 47.9186C94.8884 48.6922 95.2035 49.6346 95.2035 50.6034C95.2035 51.5721 94.8884 52.5145 94.3046 53.2881C93.7219 54.0617 92.9027 54.6245 91.9714 54.8912L75.0453 59.7262C71.4001 60.7673 68.0804 62.7203 65.3997 65.4008C62.7192 68.0813 60.766 71.4009 59.725 75.046L54.8898 91.9715C54.623 92.9028 54.0603 93.7219 53.2866 94.305C52.513 94.8878 51.5705 95.2039 50.6018 95.2039C49.633 95.2039 48.6905 94.8878 47.9169 94.305C47.1432 93.7219 46.5806 92.9028 46.3138 91.9715L41.4785 75.046C40.4375 71.4009 38.4844 68.0813 35.8038 65.4008C33.1231 62.7203 29.8035 60.7673 26.1582 59.7262L9.23214 54.8912C8.30086 54.6245 7.48167 54.0617 6.89858 53.2881C6.31538 52.5145 6 51.5721 6 50.6034C6 49.6346 6.31538 48.6922 6.89858 47.9186C7.48167 47.1449 8.30086 46.5823 9.23214 46.3154L26.1582 41.4804C29.8035 40.4394 33.1231 38.4864 35.8038 35.8059C38.4844 33.1253 40.4375 29.8058 41.4785 26.1607L46.3138 9.23521C46.58 8.30333 47.1425 7.48346 47.9161 6.89977C48.6898 6.31598 49.6325 6.0002 50.6018 6Z" stroke="#F9DC86" stroke-width="11.8938" stroke-linecap="round"/>
</svg>
